<svg width="44" height="44" viewBox="0 0 44 44" fill="none" xmlns="http://www.w3.org/2000/svg">
<circle cx="22" cy="22" r="22" fill="white"/>
<path d="M24.5 17.294V16.9414C24.6365 16.3739 25.3298 14.9595 27.1292 14.0779C28.2655 13.5212 29.0206 13.416 29.7156 13.3192C29.7384 13.316 29.7611 13.3128 29.7839 13.3096C30.332 13.2329 30.8632 13.1505 31.47 12.8486C31.5349 13.9153 31.507 15.2784 31.2601 16.5578C30.9409 18.2113 30.2894 19.5607 29.1829 20.1028C28.0026 20.6811 26.9843 20.5574 26.175 20.1801C25.4106 19.8237 24.826 19.2354 24.5 18.771V17.294Z" fill="white" stroke="#00D98B"/>
<mask id="path-3-inside-1" fill="white">
<path fill-rule="evenodd" clip-rule="evenodd" d="M23.8596 22.1021C23.0493 22.668 22.0634 23 21 23C19.9366 23 18.9507 22.668 18.1404 22.1021C17.5961 22.6563 16.8382 23 16 23C14.3431 23 13 21.6569 13 20C13 18.3431 14.3431 17 16 17C16.0334 17 16.0666 17.0005 16.0997 17.0016C16.5623 14.7186 18.5805 13 21 13C23.4195 13 25.4377 14.7186 25.9003 17.0016C25.9334 17.0005 25.9666 17 26 17C27.6569 17 29 18.3431 29 20C29 21.6569 27.6569 23 26 23C25.1618 23 24.4039 22.6563 23.8596 22.1021Z"/>
</mask>
<path fill-rule="evenodd" clip-rule="evenodd" d="M23.8596 22.1021C23.0493 22.668 22.0634 23 21 23C19.9366 23 18.9507 22.668 18.1404 22.1021C17.5961 22.6563 16.8382 23 16 23C14.3431 23 13 21.6569 13 20C13 18.3431 14.3431 17 16 17C16.0334 17 16.0666 17.0005 16.0997 17.0016C16.5623 14.7186 18.5805 13 21 13C23.4195 13 25.4377 14.7186 25.9003 17.0016C25.9334 17.0005 25.9666 17 26 17C27.6569 17 29 18.3431 29 20C29 21.6569 27.6569 23 26 23C25.1618 23 24.4039 22.6563 23.8596 22.1021Z" fill="white"/>
<path d="M23.8596 22.1021L24.573 21.4013L23.9804 20.798L23.287 21.2822L23.8596 22.1021ZM18.1404 22.1021L18.713 21.2822L18.0196 20.798L17.427 21.4013L18.1404 22.1021ZM16.0997 17.0016L16.0671 18.0011L16.9119 18.0287L17.0798 17.2002L16.0997 17.0016ZM25.9003 17.0016L24.9202 17.2002L25.0881 18.0287L25.9329 18.0011L25.9003 17.0016ZM23.287 21.2822C22.6391 21.7347 21.852 22 21 22V24C22.2748 24 23.4594 23.6013 24.4322 22.9219L23.287 21.2822ZM21 22C20.148 22 19.3609 21.7347 18.713 21.2822L17.5678 22.9219C18.5406 23.6013 19.7252 24 21 24V22ZM16 24C17.1173 24 18.1292 23.5406 18.8538 22.8028L17.427 21.4013C17.0629 21.772 16.559 22 16 22V24ZM12 20C12 22.2091 13.7909 24 16 24V22C14.8954 22 14 21.1046 14 20H12ZM16 16C13.7909 16 12 17.7909 12 20H14C14 18.8954 14.8954 18 16 18V16ZM16.1323 16.0022C16.0884 16.0007 16.0443 16 16 16V18C16.0224 18 16.0448 18.0004 16.0671 18.0011L16.1323 16.0022ZM17.0798 17.2002C17.4498 15.3742 19.0655 14 21 14V12C18.0954 12 15.6749 14.0629 15.1196 16.803L17.0798 17.2002ZM21 14C22.9345 14 24.5502 15.3742 24.9202 17.2002L26.8804 16.803C26.3251 14.0629 23.9046 12 21 12V14ZM26 16C25.9557 16 25.9116 16.0007 25.8677 16.0022L25.9329 18.0011C25.9552 18.0004 25.9776 18 26 18V16ZM30 20C30 17.7909 28.2091 16 26 16V18C27.1046 18 28 18.8954 28 20H30ZM26 24C28.2091 24 30 22.2091 30 20H28C28 21.1046 27.1046 22 26 22V24ZM23.1462 22.8028C23.8708 23.5406 24.8827 24 26 24V22C25.441 22 24.9371 21.772 24.573 21.4013L23.1462 22.8028Z" fill="#00D98B" mask="url(#path-3-inside-1)"/>
<path d="M31.4166 21.9533C31.1925 24.4697 30.4898 26.852 28.9799 28.5994C27.4859 30.3283 25.1457 31.5 21.5 31.5C18.3144 31.5 16.0119 30.3396 14.4237 28.5894C12.8242 26.8268 11.9199 24.4319 11.6163 21.9349C11.5242 21.1774 12.1525 20.5 13 20.5H30C30.8427 20.5 31.4858 21.1763 31.4166 21.9533Z" fill="white" stroke="#00D98B"/>
</svg>
