<svg width="30" height="30" viewBox="0 0 30 30" fill="none" xmlns="http://www.w3.org/2000/svg">
<path fill-rule="evenodd" clip-rule="evenodd" d="M22.3933 6.21956C22.6799 5.92681 23.1444 5.92681 23.4309 6.21956C23.7174 6.51231 23.7174 6.98695 23.4309 7.2797L16.5297 14.3311L23.7693 21.7284C24.0558 22.0211 24.0558 22.4958 23.7693 22.7885C23.4828 23.0813 23.0183 23.0813 22.7318 22.7885L15.4921 15.3913L8.25244 22.7885C7.96592 23.0813 7.5014 23.0813 7.21488 22.7885C6.92837 22.4958 6.92837 22.0211 7.21488 21.7284L14.4546 14.3311L7.55332 7.2797C7.26681 6.98695 7.26681 6.51231 7.55332 6.21956C7.83983 5.92681 8.30436 5.92681 8.59087 6.21956L15.4921 13.271L22.3933 6.21956Z" fill="black"/>
</svg>
