<svg width="130" height="130" viewBox="0 0 130 130" fill="none" xmlns="http://www.w3.org/2000/svg">
<path d="M62.1803 34.3767L63.9609 34.3511C92.1465 33.9468 115.272 56.5673 115.491 84.7549L115.533 90.1516C115.452 91.4408 114.453 93.2185 114.457 93.1823C104.977 110.899 66.6494 104.59 65.1857 104.59C38.2945 108.337 23.5094 101.796 17.2087 94.863C14.1131 91.4569 13.8286 86.5844 13.9541 81.9835C14.6695 55.7529 35.9426 34.753 62.1803 34.3767Z" fill="#2AFF91"/>
<path d="M115 94.9722C115.351 93.5698 115.564 90.3526 115.627 88.9193V85.0016C115.627 56.8732 92.7697 34.0706 64.6413 34.0706V34.0706C36.5732 34.0706 13.765 56.8243 13.765 84.8923V84.8923C13.765 87.5728 13.977 90.2491 14.3991 92.8961L15.0797 97.1635" stroke="#111111" stroke-width="0.876494"/>
<path d="M80.7371 35.3704C68.4661 43.7847 54.4422 38.4381 50.0598 34.9321C40.4183 37.5616 35.4059 42.3823 31.2151 46.3266C19.2948 57.5457 15.4382 69.4076 15 73.9361L17.6295 75.2509C21.2815 84.0158 28.761 101.546 29.4622 101.546C36.9124 104.613 46.1155 107.212 65.8367 107.681C85.5578 108.151 90.2324 105.198 95.6375 104.613L84.243 84.8923L114.482 75.2509C113.606 67.3624 108.094 58.1592 108.347 58.5975C100.984 45.6254 87.1647 37.5616 80.7371 35.3704Z" fill="white" stroke="black" stroke-width="0.876494" stroke-linecap="round" stroke-linejoin="round"/>
<circle cx="64.8964" cy="17.1474" r="12.8964" fill="#2AFF91"/>
<path d="M64.4887 4.59254C57.8654 4.77939 55.1536 9.06308 53.0333 12.9792C53.0333 12.9792 58.6167 12.4337 65.9119 11.5033C73.2071 10.5729 76.8369 12.8485 76.8369 12.8485C76.2688 8.62946 69.2603 4.45793 64.4887 4.59254Z" fill="#111111"/>
<path d="M54.8211 9.89307H75.7778L76.9868 14.7292H52.806L54.8211 9.89307Z" fill="white"/>
<path opacity="0.5" d="M54.2121 11.5051H75.5694L76.2919 13.1172H53.4945L54.2121 11.5051Z" fill="#11F37E"/>
<circle cx="64.8964" cy="17.1474" r="12.4582" stroke="#111111" stroke-width="0.876494"/>
<rect opacity="0.3" x="100.158" y="70.4509" width="12.2709" height="4.38247" transform="rotate(-19.8361 100.158 70.4509)" fill="#11F37E"/>
<rect opacity="0.3" width="12.2709" height="4.38247" transform="matrix(-0.940667 -0.33933 -0.339331 0.940667 29.4244 69.7734)" fill="#11F37E"/>
<mask id="path-11-inside-1" fill="white">
<path fill-rule="evenodd" clip-rule="evenodd" d="M24.4435 62.3701L11.17 93.1269C6.3427 104.312 12.6023 117.172 24.3838 120.272C35.9044 123.304 47.4914 115.609 49.1655 103.815L54.7094 64.7546L55.7015 61.4692C55.9001 60.8116 56.0262 60.15 56.0847 59.4929L57.8626 53.2898C58.4291 51.3134 57.292 49.2319 55.3229 48.6406C54.0714 48.2647 52.7849 48.5814 51.868 49.3696C52.1968 47.4809 51.0617 45.5925 49.1866 45.0294C47.5835 44.548 45.9243 45.1808 45.0265 46.4812C45.0232 44.9077 43.995 43.4507 42.4165 42.9783C40.9921 42.552 39.5209 43.0476 38.6337 44.1201C38.2277 43.0677 37.3581 42.2061 36.2015 41.8587C34.2325 41.2671 32.1774 42.3899 31.6113 44.3664L30.2157 49.2393C29.8609 49.5781 29.53 49.945 29.2269 50.3382C28.5238 50.156 27.7687 50.1326 27.0118 50.3C24.5459 50.8456 22.9464 53.2269 23.3743 55.7155L24.4868 62.1868C24.4718 62.2478 24.4573 62.309 24.4435 62.3701Z"/>
</mask>
<path fill-rule="evenodd" clip-rule="evenodd" d="M24.4435 62.3701L11.17 93.1269C6.3427 104.312 12.6023 117.172 24.3838 120.272C35.9044 123.304 47.4914 115.609 49.1655 103.815L54.7094 64.7546L55.7015 61.4692C55.9001 60.8116 56.0262 60.15 56.0847 59.4929L57.8626 53.2898C58.4291 51.3134 57.292 49.2319 55.3229 48.6406C54.0714 48.2647 52.7849 48.5814 51.868 49.3696C52.1968 47.4809 51.0617 45.5925 49.1866 45.0294C47.5835 44.548 45.9243 45.1808 45.0265 46.4812C45.0232 44.9077 43.995 43.4507 42.4165 42.9783C40.9921 42.552 39.5209 43.0476 38.6337 44.1201C38.2277 43.0677 37.3581 42.2061 36.2015 41.8587C34.2325 41.2671 32.1774 42.3899 31.6113 44.3664L30.2157 49.2393C29.8609 49.5781 29.53 49.945 29.2269 50.3382C28.5238 50.156 27.7687 50.1326 27.0118 50.3C24.5459 50.8456 22.9464 53.2269 23.3743 55.7155L24.4868 62.1868C24.4718 62.2478 24.4573 62.309 24.4435 62.3701Z" fill="#2AFF91"/>
<path d="M24.4435 62.3701L25.3427 62.7582L25.3787 62.6748L25.3988 62.5863L24.4435 62.3701ZM11.17 93.1269L10.2707 92.7388L11.17 93.1269ZM24.3838 120.272L24.6331 119.325L24.3838 120.272ZM49.1655 103.815L48.1958 103.677L49.1655 103.815ZM54.7094 64.7546L53.7718 64.4715L53.7502 64.543L53.7397 64.617L54.7094 64.7546ZM55.7015 61.4692L56.6392 61.7523L56.6392 61.7523L55.7015 61.4692ZM56.0847 59.4929L55.1431 59.223L55.1173 59.313L55.1091 59.4062L56.0847 59.4929ZM57.8626 53.2898L56.9211 53.0199L57.8626 53.2898ZM55.3229 48.6406L55.0412 49.5786L55.3229 48.6406ZM51.868 49.3696L50.9031 49.2016L50.4345 51.8937L52.5066 50.1123L51.868 49.3696ZM49.1866 45.0294L49.4682 44.0913L49.1866 45.0294ZM45.0265 46.4812L44.0471 46.4833L44.0538 49.6143L45.8326 47.0376L45.0265 46.4812ZM42.4165 42.9783L42.6973 42.04L42.6973 42.04L42.4165 42.9783ZM38.6337 44.1201L37.7199 44.4727L38.3221 46.0335L39.3884 44.7444L38.6337 44.1201ZM36.2015 41.8587L36.4833 40.9206L36.4833 40.9206L36.2015 41.8587ZM31.6113 44.3664L32.5529 44.636L31.6113 44.3664ZM30.2157 49.2393L30.8921 49.9477L31.0842 49.7643L31.1573 49.5089L30.2157 49.2393ZM29.2269 50.3382L28.9812 51.2863L29.6075 51.4486L30.0025 50.9362L29.2269 50.3382ZM27.0118 50.3L26.8003 49.3437L26.8003 49.3437L27.0118 50.3ZM23.3743 55.7155L24.3395 55.5496L23.3743 55.7155ZM24.4868 62.1868L25.4378 62.4212L25.4868 62.2225L25.4521 62.0208L24.4868 62.1868ZM23.5442 61.982L10.2707 92.7388L12.0692 93.515L25.3427 62.7582L23.5442 61.982ZM10.2707 92.7388C5.20598 104.475 11.7735 117.966 24.1346 121.219L24.6331 119.325C13.4311 116.377 7.47943 104.15 12.0692 93.515L10.2707 92.7388ZM24.1346 121.219C36.2218 124.401 48.3788 116.327 50.1352 103.952L48.1958 103.677C46.6041 114.891 35.587 122.208 24.6331 119.325L24.1346 121.219ZM50.1352 103.952L55.6791 64.8922L53.7397 64.617L48.1958 103.677L50.1352 103.952ZM54.7639 61.186L53.7718 64.4715L55.647 65.0378L56.6392 61.7523L54.7639 61.186ZM55.1091 59.4062C55.0565 59.9971 54.9431 60.5928 54.7639 61.186L56.6392 61.7523C56.8572 61.0304 56.996 60.303 57.0603 59.5796L55.1091 59.4062ZM56.9211 53.0199L55.1431 59.223L57.0262 59.7628L58.8041 53.5596L56.9211 53.0199ZM55.0412 49.5786C56.4969 50.0158 57.3398 51.5589 56.9211 53.0199L58.8041 53.5596C59.5183 51.0679 58.0872 48.448 55.6046 47.7025L55.0412 49.5786ZM52.5066 50.1123C53.179 49.5342 54.1208 49.3022 55.0412 49.5786L55.6046 47.7025C54.0219 47.2272 52.3907 47.6286 51.2295 48.6269L52.5066 50.1123ZM48.9049 45.9674C50.2991 46.3861 51.1479 47.7952 50.9031 49.2016L52.833 49.5376C53.2457 47.1667 51.8243 44.7988 49.4682 44.0913L48.9049 45.9674ZM45.8326 47.0376C46.4949 46.0782 47.7189 45.6113 48.9049 45.9674L49.4682 44.0913C47.4481 43.4847 45.3536 44.2834 44.2205 45.9248L45.8326 47.0376ZM42.1357 43.9166C43.2876 44.2614 44.0446 45.3284 44.0471 46.4833L46.006 46.4791C46.0017 44.4871 44.7024 42.64 42.6973 42.04L42.1357 43.9166ZM39.3884 44.7444C40.0326 43.9657 41.0997 43.6066 42.1357 43.9166L42.6973 42.04C40.8846 41.4975 39.0093 42.1294 37.879 43.4959L39.3884 44.7444ZM35.9197 42.7967C36.7722 43.0528 37.4173 43.6884 37.7199 44.4727L39.5475 43.7676C39.0381 42.4471 37.944 41.3594 36.4833 40.9206L35.9197 42.7967ZM32.5529 44.636C32.9687 43.1843 34.4735 42.3622 35.9197 42.7967L36.4833 40.9206C33.9915 40.1721 31.3861 41.5954 30.6698 44.0967L32.5529 44.636ZM31.1573 49.5089L32.5529 44.636L30.6698 44.0967L29.2741 48.9696L31.1573 49.5089ZM30.0025 50.9362C30.2751 50.5826 30.5728 50.2525 30.8921 49.9477L29.5394 48.5308C29.149 48.9036 28.7848 49.3074 28.4512 49.7401L30.0025 50.9362ZM27.2234 51.2563C27.8256 51.1231 28.4241 51.1419 28.9812 51.2863L29.4726 49.39C28.6236 49.17 27.7117 49.142 26.8003 49.3437L27.2234 51.2563ZM24.3395 55.5496C24.0003 53.5763 25.2678 51.689 27.2234 51.2563L26.8003 49.3437C23.8239 50.0022 21.8925 52.8774 22.409 55.8815L24.3395 55.5496ZM25.4521 62.0208L24.3395 55.5496L22.409 55.8815L23.5215 62.3527L25.4521 62.0208ZM25.3988 62.5863C25.4112 62.5313 25.4242 62.4762 25.4378 62.4212L23.5359 61.9523C23.5193 62.0194 23.5034 62.0867 23.4882 62.1539L25.3988 62.5863Z" fill="#111111" mask="url(#path-11-inside-1)"/>
<path d="M30.6909 49.7268L28.6898 56.6289" stroke="black" stroke-width="0.979442"/>
<line x1="38.4036" y1="44.7156" x2="37.0884" y2="49.8237" stroke="black" stroke-width="0.979442"/>
<line x1="44.5428" y1="47.0595" x2="43.3269" y2="51.5188" stroke="black" stroke-width="0.979442"/>
<line y1="-0.489721" x2="4.10648" y2="-0.489721" transform="matrix(-0.278452 0.96045 0.96045 0.278451 51.868 49.7952)" stroke="black" stroke-width="0.979442"/>
<mask id="path-17-inside-2" fill="white">
<path fill-rule="evenodd" clip-rule="evenodd" d="M105.326 62.3701L118.6 93.1269C123.427 104.312 117.167 117.172 105.386 120.272C93.8651 123.304 82.2781 115.609 80.604 103.815L75.0601 64.7546L74.068 61.4692C73.8694 60.8116 73.7433 60.1501 73.6849 59.4929L71.9069 53.2898C71.3405 51.3134 72.4775 49.2319 74.4466 48.6406C75.6982 48.2647 76.9847 48.5814 77.9015 49.3696C77.5727 47.481 78.7078 45.5925 80.583 45.0294C82.186 44.548 83.8452 45.1808 84.743 46.4812C84.7464 44.9077 85.7745 43.4507 87.353 42.9783C88.7774 42.552 90.2486 43.0476 91.1358 44.1201C91.5418 43.0677 92.4114 42.2061 93.568 41.8587C95.537 41.2671 97.5921 42.3899 98.1582 44.3664L99.5538 49.2393C99.9087 49.5781 100.24 49.945 100.543 50.3382C101.246 50.156 102.001 50.1326 102.758 50.3C105.224 50.8456 106.823 53.2269 106.395 55.7156L105.283 62.1867C105.298 62.2478 105.312 62.3089 105.326 62.3701Z"/>
</mask>
<path fill-rule="evenodd" clip-rule="evenodd" d="M105.326 62.3701L118.6 93.1269C123.427 104.312 117.167 117.172 105.386 120.272C93.8651 123.304 82.2781 115.609 80.604 103.815L75.0601 64.7546L74.068 61.4692C73.8694 60.8116 73.7433 60.1501 73.6849 59.4929L71.9069 53.2898C71.3405 51.3134 72.4775 49.2319 74.4466 48.6406C75.6982 48.2647 76.9847 48.5814 77.9015 49.3696C77.5727 47.481 78.7078 45.5925 80.583 45.0294C82.186 44.548 83.8452 45.1808 84.743 46.4812C84.7464 44.9077 85.7745 43.4507 87.353 42.9783C88.7774 42.552 90.2486 43.0476 91.1358 44.1201C91.5418 43.0677 92.4114 42.2061 93.568 41.8587C95.537 41.2671 97.5921 42.3899 98.1582 44.3664L99.5538 49.2393C99.9087 49.5781 100.24 49.945 100.543 50.3382C101.246 50.156 102.001 50.1326 102.758 50.3C105.224 50.8456 106.823 53.2269 106.395 55.7156L105.283 62.1867C105.298 62.2478 105.312 62.3089 105.326 62.3701Z" fill="#2AFF91"/>
<path d="M105.326 62.3701L104.427 62.7582L104.391 62.6748L104.371 62.5863L105.326 62.3701ZM118.6 93.1269L117.7 93.515L118.6 93.1269ZM105.386 120.272L105.136 119.325L105.386 120.272ZM80.604 103.815L79.6343 103.952L80.604 103.815ZM75.0601 64.7546L75.9978 64.4715L76.0194 64.543L76.0299 64.617L75.0601 64.7546ZM74.068 61.4692L73.1304 61.7523L73.1304 61.7523L74.068 61.4692ZM73.6849 59.4929L74.6264 59.2231L74.6522 59.313L74.6605 59.4062L73.6849 59.4929ZM71.9069 53.2898L70.9654 53.5597L71.9069 53.2898ZM74.4466 48.6406L74.7283 49.5786L74.4466 48.6406ZM77.9015 49.3696L78.8664 49.2017L79.335 51.8937L77.263 50.1123L77.9015 49.3696ZM80.583 45.0294L80.3013 44.0913L80.583 45.0294ZM84.743 46.4812L85.7224 46.4833L85.7157 49.6142L83.937 47.0376L84.743 46.4812ZM87.353 42.9783L87.0722 42.04L87.0722 42.04L87.353 42.9783ZM91.1358 44.1201L92.0496 44.4727L91.4474 46.0335L90.3811 44.7444L91.1358 44.1201ZM93.568 41.8587L93.2862 40.9206L93.2862 40.9206L93.568 41.8587ZM98.1582 44.3664L97.2166 44.636L98.1582 44.3664ZM99.5538 49.2393L98.8774 49.9477L98.6853 49.7643L98.6122 49.5089L99.5538 49.2393ZM100.543 50.3382L100.788 51.2863L100.162 51.4486L99.767 50.9362L100.543 50.3382ZM102.758 50.3L102.969 49.3437L102.969 49.3437L102.758 50.3ZM106.395 55.7156L105.43 55.5496L106.395 55.7156ZM105.283 62.1867L104.332 62.4212L104.283 62.2225L104.317 62.0208L105.283 62.1867ZM106.225 61.982L119.499 92.7388L117.7 93.515L104.427 62.7582L106.225 61.982ZM119.499 92.7388C124.564 104.475 117.996 117.966 105.635 121.219L105.136 119.325C116.338 116.377 122.29 104.15 117.7 93.515L119.499 92.7388ZM105.635 121.219C93.5477 124.401 81.3907 116.327 79.6343 103.952L81.5738 103.677C83.1655 114.891 94.1825 122.208 105.136 119.325L105.635 121.219ZM79.6343 103.952L74.0904 64.8923L76.0299 64.617L81.5738 103.677L79.6343 103.952ZM75.0056 61.186L75.9978 64.4715L74.1225 65.0378L73.1304 61.7523L75.0056 61.186ZM74.6605 59.4062C74.713 59.9971 74.8265 60.5928 75.0056 61.186L73.1304 61.7523C72.9123 61.0304 72.7736 60.303 72.7093 59.5796L74.6605 59.4062ZM72.8485 53.0199L74.6264 59.2231L72.7433 59.7628L70.9654 53.5597L72.8485 53.0199ZM74.7283 49.5786C73.2727 50.0158 72.4297 51.5589 72.8485 53.0199L70.9654 53.5597C70.2512 51.0679 71.6823 48.448 74.1649 47.7025L74.7283 49.5786ZM77.263 50.1123C76.5905 49.5342 75.6487 49.3022 74.7283 49.5786L74.1649 47.7025C75.7476 47.2272 77.3788 47.6286 78.54 48.6269L77.263 50.1123ZM80.8647 45.9674C79.4704 46.3861 78.6216 47.7952 78.8664 49.2017L76.9366 49.5376C76.5238 47.1667 77.9452 44.7988 80.3013 44.0913L80.8647 45.9674ZM83.937 47.0376C83.2746 46.0782 82.0506 45.6113 80.8647 45.9674L80.3013 44.0913C82.3214 43.4847 84.4159 44.2834 85.549 45.9247L83.937 47.0376ZM87.6338 43.9166C86.4819 44.2614 85.7249 45.3284 85.7224 46.4833L83.7636 46.4791C83.7678 44.4871 85.0672 42.64 87.0722 42.04L87.6338 43.9166ZM90.3811 44.7444C89.737 43.9657 88.6699 43.6066 87.6338 43.9166L87.0722 42.04C88.8849 41.4975 90.7602 42.1294 91.8905 43.4959L90.3811 44.7444ZM93.8498 42.7967C92.9973 43.0528 92.3522 43.6883 92.0496 44.4727L90.222 43.7676C90.7315 42.4471 91.8255 41.3594 93.2862 40.9206L93.8498 42.7967ZM97.2166 44.636C96.8008 43.1843 95.296 42.3622 93.8498 42.7967L93.2862 40.9206C95.778 40.1721 98.3834 41.5954 99.0998 44.0967L97.2166 44.636ZM98.6122 49.5089L97.2166 44.636L99.0998 44.0967L100.495 48.9696L98.6122 49.5089ZM99.767 50.9362C99.4944 50.5827 99.1967 50.2525 98.8774 49.9477L100.23 48.5309C100.621 48.9036 100.985 49.3074 101.318 49.7401L99.767 50.9362ZM102.546 51.2563C101.944 51.1231 101.345 51.1419 100.788 51.2863L100.297 49.3901C101.146 49.17 102.058 49.142 102.969 49.3437L102.546 51.2563ZM105.43 55.5496C105.769 53.5764 104.502 51.689 102.546 51.2563L102.969 49.3437C105.946 50.0022 107.877 52.8774 107.361 55.8815L105.43 55.5496ZM104.317 62.0208L105.43 55.5496L107.361 55.8815L106.248 62.3527L104.317 62.0208ZM104.371 62.5863C104.358 62.5312 104.345 62.4762 104.332 62.4212L106.234 61.9523C106.25 62.0194 106.266 62.0866 106.281 62.1539L104.371 62.5863Z" fill="#111111" mask="url(#path-17-inside-2)"/>
<path d="M99.0787 49.7268L101.08 56.6289" stroke="black" stroke-width="0.979442"/>
<line y1="-0.489721" x2="5.27471" y2="-0.489721" transform="matrix(0.249354 0.968412 0.968412 -0.249355 91.8401 44.5935)" stroke="black" stroke-width="0.979442"/>
<line y1="-0.489721" x2="4.62207" y2="-0.489721" transform="matrix(0.263052 0.964782 0.964782 -0.263052 85.6992 46.9307)" stroke="black" stroke-width="0.979442"/>
<line y1="-0.489721" x2="4.10648" y2="-0.489721" transform="matrix(0.278453 0.96045 -0.960451 0.27845 77.9015 49.7952)" stroke="black" stroke-width="0.979442"/>
</svg>
