<svg width="130" height="130" viewBox="0 0 130 130" fill="none" xmlns="http://www.w3.org/2000/svg">
<path d="M62.5097 39.947L64.2903 39.9214C92.4759 39.5171 115.602 62.1376 115.82 90.3253L115.862 95.7219C115.782 97.0111 114.783 98.7888 114.786 98.7526C109.719 108.222 96.4093 110.828 84.8932 111.202C71.9797 111.621 59.1579 112.255 46.238 112.352C29.1712 112.48 20.8894 106.564 16.956 100.77C14.3706 96.9624 14.158 92.1547 14.2835 87.5539C14.9989 61.3232 36.272 40.3233 62.5097 39.947Z" fill="#E101FF"/>
<path d="M22.815 61.1886C30.1608 50.9045 40.9347 45.5175 41.4244 45.0278L61.0133 50.9045L64.931 48.9456L68.3591 50.9045L86.9685 44.5381C90.0701 46.3337 98.2378 50.9045 105.088 59.2297C112.14 66.6735 114.883 78.6553 115.372 83.7158L90.7876 92.6541C88.7551 101.929 85.0904 109.308 84.6522 111.06C81.2241 111.06 63.4619 111.14 63.4619 111.63C56.0181 112.805 44.0363 111.793 38.9758 111.14L35.5478 91.0616L14.4897 83.7158C14.8162 79.6348 16.9384 69.4159 22.815 61.1886Z" fill="#1F79FF"/>
<path d="M14 94.4896V90.5719C14 62.4435 36.8026 39.6409 64.931 39.6409V39.6409C93.0594 39.6409 115.862 62.4435 115.862 90.5719V94.4896" stroke="#111111" stroke-width="0.876494"/>
<path d="M51.7086 38.1716L64.931 48.9455L78.1535 38.1716L86.9685 44.0483L68.3591 50.9044L64.931 48.9455L61.0133 50.9044L41.4244 45.0277L51.7086 38.1716Z" fill="#1F79FF"/>
<path d="M64.931 48.9455L51.7086 38.1716L41.4244 45.0277L61.0133 50.9044L64.931 48.9455ZM64.931 48.9455L78.1535 38.1716L86.9685 44.0483L68.3591 50.9044L64.931 48.9455Z" stroke="#0F1528" stroke-width="0.876494" stroke-linecap="square" stroke-linejoin="round"/>
<path d="M14.9795 83.7159L42.4039 94.0001L33.8155 72.4949" stroke="#0F1528" stroke-width="0.876494" stroke-linecap="square" stroke-linejoin="round"/>
<path d="M115.144 83.7158L87.7199 94L95.6083 74.686" stroke="#0F1528" stroke-width="0.876494" stroke-linecap="square" stroke-linejoin="round"/>
<mask id="path-8-inside-1" fill="white">
<path fill-rule="evenodd" clip-rule="evenodd" d="M50.6677 59.2664C44.5097 55.2753 36.9059 61.6701 39.7821 68.4213C40.523 70.1604 40.5738 72.1163 39.9241 73.8915L38.1472 78.7469C33.0462 78.9681 28.9375 83.0957 28.7879 88.2477L28.1154 111.407C27.9582 116.821 32.2257 121.335 37.6404 121.482L59.1948 122.066C59.6646 122.19 60.1585 122.256 60.668 122.253L70.4704 122.211C73.5962 122.198 76.1264 119.653 76.1216 116.527C76.1186 114.486 75.0362 112.703 73.4156 111.714C76.0694 111.235 78.0827 108.909 78.0784 106.12C78.0746 103.553 76.362 101.392 74.0183 100.709C76.3683 100.012 78.0823 97.832 78.0784 95.2588C78.0742 92.466 76.0479 90.1543 73.3868 89.7031C75.5142 88.8801 77.0231 86.8118 77.0196 84.3974C77.0152 81.2716 74.4776 78.7492 71.3518 78.7635L62.5756 78.8036C62.2006 78.76 61.8192 78.7376 61.4326 78.7376H56.644L57.3013 76.2237C57.6957 74.715 57.7242 73.134 57.3844 71.6121L56.0204 65.5026C55.5574 63.4291 54.2992 61.6201 52.5164 60.4646L50.6677 59.2664Z"/>
</mask>
<path fill-rule="evenodd" clip-rule="evenodd" d="M50.6677 59.2664C44.5097 55.2753 36.9059 61.6701 39.7821 68.4213C40.523 70.1604 40.5738 72.1163 39.9241 73.8915L38.1472 78.7469C33.0462 78.9681 28.9375 83.0957 28.7879 88.2477L28.1154 111.407C27.9582 116.821 32.2257 121.335 37.6404 121.482L59.1948 122.066C59.6646 122.19 60.1585 122.256 60.668 122.253L70.4704 122.211C73.5962 122.198 76.1264 119.653 76.1216 116.527C76.1186 114.486 75.0362 112.703 73.4156 111.714C76.0694 111.235 78.0827 108.909 78.0784 106.12C78.0746 103.553 76.362 101.392 74.0183 100.709C76.3683 100.012 78.0823 97.832 78.0784 95.2588C78.0742 92.466 76.0479 90.1543 73.3868 89.7031C75.5142 88.8801 77.0231 86.8118 77.0196 84.3974C77.0152 81.2716 74.4776 78.7492 71.3518 78.7635L62.5756 78.8036C62.2006 78.76 61.8192 78.7376 61.4326 78.7376H56.644L57.3013 76.2237C57.6957 74.715 57.7242 73.134 57.3844 71.6121L56.0204 65.5026C55.5574 63.4291 54.2992 61.6201 52.5164 60.4646L50.6677 59.2664Z" fill="#E101FF"/>
<path d="M39.7821 68.4213L38.881 68.8051L39.7821 68.4213ZM50.6677 59.2664L51.2004 58.4445V58.4445L50.6677 59.2664ZM39.9241 73.8915L40.8439 74.2282L39.9241 73.8915ZM38.1472 78.7469L38.1896 79.7254L38.8424 79.6971L39.0669 79.0835L38.1472 78.7469ZM28.7879 88.2477L29.7669 88.2761L28.7879 88.2477ZM28.1154 111.407L27.1364 111.379L28.1154 111.407ZM37.6404 121.482L37.6139 122.461L37.6404 121.482ZM59.1948 122.066L59.4451 121.119L59.3351 121.09L59.2213 121.087L59.1948 122.066ZM60.668 122.253L60.6722 123.233H60.6722L60.668 122.253ZM70.4704 122.211L70.4662 121.232L70.4704 122.211ZM76.1216 116.527L75.1422 116.528V116.528L76.1216 116.527ZM73.4156 111.714L73.2416 110.75L70.7057 111.208L72.9054 112.55L73.4156 111.714ZM78.0784 106.12L77.099 106.122L78.0784 106.12ZM74.0183 100.709L73.7396 99.7704L70.5471 100.718L73.7444 101.65L74.0183 100.709ZM78.0784 95.2588L77.099 95.2602V95.2603L78.0784 95.2588ZM73.3868 89.7031L73.0334 88.7896L69.7141 90.0737L73.2231 90.6687L73.3868 89.7031ZM77.0196 84.3974L76.0402 84.3988L77.0196 84.3974ZM71.3518 78.7635L71.3562 79.7429L71.3518 78.7635ZM62.5756 78.8036L62.4625 79.7765L62.5211 79.7833L62.5801 79.7831L62.5756 78.8036ZM56.644 78.7376L55.6964 78.4898L55.3756 79.717H56.644V78.7376ZM57.3013 76.2237L56.3537 75.976L57.3013 76.2237ZM57.3844 71.6121L56.4285 71.8255L57.3844 71.6121ZM56.0204 65.5026L56.9763 65.2891L56.0204 65.5026ZM52.5164 60.4646L51.9837 61.2865L52.5164 60.4646ZM40.6831 68.0374C38.1858 62.1754 44.7881 56.6229 50.135 60.0883L51.2004 58.4445C44.2313 53.9277 35.626 61.1648 38.881 68.8051L40.6831 68.0374ZM40.8439 74.2282C41.5791 72.2191 41.5216 70.0055 40.6831 68.0374L38.881 68.8051C39.5243 70.3152 39.5684 72.0135 39.0043 73.5549L40.8439 74.2282ZM39.0669 79.0835L40.8439 74.2282L39.0043 73.5549L37.2274 78.4103L39.0669 79.0835ZM29.7669 88.2761C29.9015 83.6395 33.5994 79.9244 38.1896 79.7254L38.1047 77.7684C32.493 78.0117 27.9734 82.5518 27.8089 88.2193L29.7669 88.2761ZM29.0945 111.435L29.7669 88.2761L27.8089 88.2193L27.1364 111.379L29.0945 111.435ZM37.6669 120.503C32.7937 120.371 28.953 116.308 29.0945 111.435L27.1364 111.379C26.9635 117.334 31.6577 122.3 37.6139 122.461L37.6669 120.503ZM59.2213 121.087L37.6669 120.503L37.6139 122.461L59.1683 123.045L59.2213 121.087ZM60.6638 121.274C60.2409 121.276 59.8326 121.222 59.4451 121.119L58.9445 123.013C59.4967 123.159 60.0761 123.235 60.6722 123.233L60.6638 121.274ZM70.4662 121.232L60.6638 121.274L60.6722 123.233L70.4746 123.191L70.4662 121.232ZM75.1422 116.528C75.1461 119.114 73.0521 121.221 70.4662 121.232L70.4746 123.191C74.1403 123.175 77.1066 120.191 77.1011 116.525L75.1422 116.528ZM72.9054 112.55C74.2468 113.369 75.1397 114.842 75.1422 116.528L77.1011 116.525C77.0975 114.131 75.8257 112.037 73.9257 110.878L72.9054 112.55ZM77.099 106.122C77.1025 108.427 75.437 110.354 73.2416 110.75L73.5895 112.678C76.7018 112.116 79.0628 109.39 79.0579 106.119L77.099 106.122ZM73.7444 101.65C75.6815 102.214 77.0958 104 77.099 106.122L79.0579 106.119C79.0533 103.105 77.0424 100.57 74.2923 99.769L73.7444 101.65ZM77.099 95.2603C77.1022 97.3873 75.6851 99.1928 73.7396 99.7704L74.2971 101.648C77.0515 100.83 79.0624 98.2768 79.0579 95.2573L77.099 95.2603ZM73.2231 90.6687C75.4215 91.0415 77.0955 92.9524 77.099 95.2602L79.0579 95.2573C79.0529 91.9795 76.6744 89.2671 73.5506 88.7374L73.2231 90.6687ZM76.0402 84.3988C76.043 86.3944 74.7961 88.1077 73.0334 88.7896L73.7402 90.6165C76.2324 89.6525 78.0031 87.2293 77.9991 84.396L76.0402 84.3988ZM71.3562 79.7429C73.9399 79.7311 76.0365 81.8151 76.0402 84.3988L77.9991 84.396C77.9938 80.7281 75.0152 77.7673 71.3473 77.784L71.3562 79.7429ZM62.5801 79.7831L71.3562 79.7429L71.3473 77.784L62.5711 77.8242L62.5801 79.7831ZM61.4326 79.717C61.7813 79.717 62.1249 79.7372 62.4625 79.7765L62.6888 77.8307C62.2763 77.7828 61.8571 77.7581 61.4326 77.7581V79.717ZM56.644 79.717H61.4326V77.7581H56.644V79.717ZM56.3537 75.976L55.6964 78.4898L57.5916 78.9853L58.2488 76.4715L56.3537 75.976ZM56.4285 71.8255C56.7343 73.1952 56.7087 74.6182 56.3537 75.976L58.2488 76.4715C58.6827 74.8119 58.7141 73.0728 58.3403 71.3986L56.4285 71.8255ZM55.0645 65.716L56.4285 71.8255L58.3403 71.3986L56.9763 65.2891L55.0645 65.716ZM51.9837 61.2865C53.5512 62.3024 54.6574 63.8929 55.0645 65.716L56.9763 65.2891C56.4574 62.9652 55.0473 60.9377 53.0491 59.6427L51.9837 61.2865ZM50.135 60.0883L51.9837 61.2865L53.0491 59.6427L51.2004 58.4445L50.135 60.0883Z" fill="#111111" mask="url(#path-8-inside-1)"/>
<path d="M58.0941 79.2395H47.9115" stroke="black" stroke-width="0.979442"/>
<line x1="72.0085" y1="89.7698" x2="65.9842" y2="89.7698" stroke="black" stroke-width="0.979442"/>
<line x1="73.0125" y1="100.814" x2="65.9842" y2="100.814" stroke="black" stroke-width="0.979442"/>
<line x1="73.0125" y1="111.357" x2="65.9842" y2="111.357" stroke="black" stroke-width="0.979442"/>
<circle cx="84.6521" cy="76.8773" r="3.06773" fill="white"/>
<rect opacity="0.4" x="79.8314" y="82.5745" width="9.64144" height="2.62948" fill="white"/>
<circle cx="64.8987" cy="22.6622" r="12.751" fill="#E101FF" stroke="#111111" stroke-width="0.876494"/>
<path d="M68.0124 10.1166C63.2994 8.84368 57.5532 11.7468 54.3237 14.9581C54.3237 14.9581 59.9527 16.0676 67.3717 17.3041C74.7906 18.5406 77.6758 21.8379 77.6758 21.8379C78.3615 17.5385 72.7254 11.3895 68.0124 10.1166Z" fill="#111111"/>
<path d="M49.0623 22.6622L48 21.4257L54.1825 14.8311L57.1895 15.2432C61.9212 16.1475 72.2307 17.3795 72.3177 17.304C66.7912 22.1045 67.3717 22.6622 64.0163 22.2258C62.7269 22.058 60.7771 19.3649 56.2433 19.3649C53.6193 19.3649 50.3627 21.7894 49.0623 22.6622Z" fill="#111111"/>
</svg>
