<svg width="96" height="45" viewBox="0 0 96 45" fill="none" xmlns="http://www.w3.org/2000/svg">
<path fill-rule="evenodd" clip-rule="evenodd" d="M71.4884 10.7285H59.4189V0H96V10.7285H83.5579V44.9983H71.4884V10.7285Z" fill="#11F37E"/>
<path d="M53.8484 44.7798H41.779V0H53.8484V44.7798Z" fill="#11F37E"/>
<path fill-rule="evenodd" clip-rule="evenodd" d="M0 0V44.9983H11.141V29.7237H24.3338C27.9427 29.7237 30.9993 28.8131 33.1395 26.6564C35.2787 24.5007 36.181 21.4236 36.181 17.7904V11.9333C36.181 8.30009 35.2787 5.22304 33.1395 3.06731C30.9993 0.910571 27.9427 0 24.3338 0H0ZM26.045 18.6057C25.8812 18.7703 25.3712 19.0791 24.0195 19.0791H9.66498V10.6447H23.2105C23.9419 10.6447 24.4096 10.6692 24.7927 10.7718C25.1363 10.8637 25.4443 11.0283 25.8045 11.3891C26.1588 11.7441 26.3152 12.048 26.4012 12.3908C26.4986 12.7789 26.5161 13.2491 26.5161 13.9937V16.5704C26.5161 17.9287 26.2088 18.4411 26.045 18.6057Z" fill="#11F37E"/>
</svg>
