<svg width="22" height="22" viewBox="0 0 22 22" fill="none" xmlns="http://www.w3.org/2000/svg">
<circle cx="11" cy="11" r="11" fill="#C2C7CC"/>
<path d="M10.341 12.808C10.341 12.4533 10.3736 12.15 10.439 11.898C10.5136 11.6367 10.635 11.3893 10.803 11.156C10.9803 10.9227 11.2183 10.68 11.517 10.428C11.881 10.12 12.161 9.86333 12.357 9.658C12.5623 9.45267 12.707 9.252 12.791 9.056C12.875 8.86 12.917 8.622 12.917 8.342C12.917 7.894 12.7723 7.54867 12.483 7.306C12.1936 7.06333 11.7736 6.942 11.223 6.942C10.7656 6.942 10.3596 7.00267 10.005 7.124C9.65028 7.236 9.30962 7.37133 8.98295 7.53L8.54895 6.55C8.92228 6.354 9.33295 6.19067 9.78095 6.06C10.2383 5.92933 10.747 5.864 11.307 5.864C12.1936 5.864 12.8796 6.08333 13.365 6.522C13.8503 6.96067 14.093 7.558 14.093 8.314C14.093 8.734 14.023 9.09333 13.883 9.392C13.7523 9.68133 13.561 9.952 13.309 10.204C13.0663 10.4467 12.777 10.708 12.441 10.988C12.133 11.2493 11.895 11.478 11.727 11.674C11.5683 11.87 11.461 12.066 11.405 12.262C11.349 12.4487 11.321 12.6773 11.321 12.948V13.186H10.341V12.808ZM10.019 15.244C10.019 14.8987 10.0983 14.656 10.257 14.516C10.425 14.376 10.635 14.306 10.887 14.306C11.1203 14.306 11.321 14.376 11.489 14.516C11.657 14.656 11.741 14.8987 11.741 15.244C11.741 15.58 11.657 15.8227 11.489 15.972C11.321 16.1213 11.1203 16.196 10.887 16.196C10.635 16.196 10.425 16.1213 10.257 15.972C10.0983 15.8227 10.019 15.58 10.019 15.244Z" fill="white"/>
</svg>
